<?xml version="1.0" encoding="UTF-8" standalone="no"?>
<svg
   role="img"
   viewBox="0 0 24.000061 15.768148"
   version="1.1"
   id="svg1"
   sodipodi:docname="path1.svg"
   width="24.000061"
   height="15.768147"
   xmlns:inkscape="http://www.inkscape.org/namespaces/inkscape"
   xmlns:sodipodi="http://sodipodi.sourceforge.net/DTD/sodipodi-0.dtd"
   xmlns="http://www.w3.org/2000/svg"
   xmlns:svg="http://www.w3.org/2000/svg">
  <defs
     id="defs1" />
  <sodipodi:namedview
     id="namedview1"
     pagecolor="#ffffff"
     bordercolor="#000000"
     borderopacity="0.25"
     inkscape:showpageshadow="2"
     inkscape:pageopacity="0.0"
     inkscape:pagecheckerboard="0"
     inkscape:deskcolor="#d1d1d1" />
  <title
     id="title1">Ruby Sinatra</title>
  <path
     d="m 5.2240685,6.4095706 c -1.215,0.4 -3.32,1.384 -3.943,1.934 -0.069,0.06 -0.138,0.125 -0.207,0.194 -0.48999995,0.43 -0.75999995,0.851 -0.88999995,1.285 A 4.423,4.423 0 0 0 6.8547316e-5,11.092571 c -0.0049999973,0.842 0.247000002684,1.369 0.247000002684,1.369 0.714,1.428 2.41599995,2.4 4.20999995,2.963 1.777,0.593 5.6220005,0.289 7.5210005,0.046 5.091,-0.684 8.389,-1.657 10.319,-3.237 1.627,-1.307 1.703,-2.7050004 1.703,-3.2220004 0,-0.06 -0.007,-0.134 -0.02,-0.219 -0.032,-0.553 -0.258,-1.62 -1.49,-2.38 a 2.96,2.96 0 0 0 -0.33,-0.197 c -0.125,-0.065 -0.25,-0.127 -0.375,-0.186 l -0.035,-0.027 -0.191,-0.078 a 12.313,12.313 0 0 0 -0.629,-0.264 c -0.515,-0.225 -0.971,-0.387 -1.372,-0.477 a 69.929,69.929 0 0 1 -0.041,-1.703 c 0,-0.7 -0.244,-1.08 -0.441,-1.277 -0.12,-0.119 -0.557,-0.265 -0.997,-0.4 a 19.118,19.118 0 0 0 -0.93,-0.287 4.657,4.657 0 0 0 -0.079,-0.027 v 0.005 l -0.417,-0.12 h -10e-4 l -0.448,-0.128 a 1.5,1.5 0 0 1 -0.094,-0.015 l -0.033,-0.01 a 2.161,2.161 0 0 0 -0.07,-0.02 l -0.028,-0.008 a 64.267,64.267 0 0 1 -0.641,-0.19 1.72,1.72 0 0 1 -0.091,-0.012 v -0.003 a 51.125,51.125 0 0 1 -0.213,-0.057 v -0.004 a 30.91,30.91 0 0 0 -0.32,-0.09 v -0.001 a 17.568,17.568 0 0 0 -0.669,-0.167 70.288,70.288 0 0 0 -2.689,-0.502 c -0.182,-0.046 -1.3670005,-0.152 -1.3670005,-0.152 a 5.944,5.944 0 0 0 -1.106,0.023 4.01,4.01 0 0 0 -0.779,0.19 c -0.113,0.024 -0.245,0.103 -0.383,0.216 a 1.363,1.363 0 0 0 -0.177,0.146 l -0.002,0.002 a 4.226,4.226 0 0 0 -0.125,0.12 l -0.007,0.008 c -0.217,0.217 -0.36,0.41199996 -0.454,0.58399996 -0.174,0.249 -0.304,0.479 -0.341,0.61 -0.032,0.119 -0.129,0.578 -0.228,1.044 -0.091,0.432 -0.184,0.871 -0.228,1.054 -0.048,0.2 -0.334,0.906 -0.601,1.567 -0.124,0.304 -0.243,0.598 -0.334,0.83 z m 14.3840005,0.642 c 0,-0.06 0.076,-0.06 0.076,0.015 0,0 0,0.016 -0.003,0.036 a 0.092,0.092 0 0 1 0.003,0.025 c 0,0.03 0,0.456 -0.03,0.957 -0.008,0.137 -0.02,0.281 -0.031,0.426 -0.011,0.144 -0.023,0.289 -0.03,0.425 -0.007,0.225 -0.008,0.431 -0.007,0.59 0.007,0.154 0.007,0.246 0.007,0.246 v 0.106 c 0,0.2590004 -0.152,0.5930004 -0.396,0.7450004 l -0.04,0.026 h -0.001 l -0.021,0.013 c -0.115,0.088 -0.251,0.166 -0.409,0.23 -0.22,0.106 -0.516,0.223 -0.942,0.339 -0.836,0.243 -1.459,0.35 -1.869,0.395 -1.003,0.122 -2.188,0.182 -3.601,0.182 -0.29,0 -1.414,0 -1.687,-0.015 -3.7390005,-0.106 -5.9880005,-1.23 -5.9880005,-2.0360004 v -0.106 c 0,0 0.32,-2.478 0.32,-2.63 0,-0.151 0.09,-0.273 0.09,-0.182 v 0.06 c 0,0.03 0,0.061 0.002,0.093 0.002,0.01 0.005,0.018 0.008,0.025 0.003,0.007 0.006,0.013 0.006,0.02 0.32,1.018 3.45,1.717 7.2790005,1.717 h 0.638 l 0.205,-0.003 h 0.001 c 1.15,-0.012 3.818,-0.042 5.842,-0.954 0.35,-0.228 0.578,-0.456 0.578,-0.745 z"
     id="path1" />
</svg>
