<?xml version="1.0" encoding="UTF-8" standalone="no"?>
<svg
   height="927.90894"
   viewBox="16.8 16.1 72.377106 20.488229"
   width="2482.0681"
   version="1.1"
   id="svg2"
   sodipodi:docname="switch2.svg"
   inkscape:version="1.3 (0e150ed6c4, 2023-07-21)"
   xmlns:inkscape="http://www.inkscape.org/namespaces/inkscape"
   xmlns:sodipodi="http://sodipodi.sourceforge.net/DTD/sodipodi-0.dtd"
   xmlns="http://www.w3.org/2000/svg"
   xmlns:svg="http://www.w3.org/2000/svg">
  <defs
     id="defs2" />
  <sodipodi:namedview
     id="namedview2"
     pagecolor="#ffffff"
     bordercolor="#000000"
     borderopacity="0.25"
     inkscape:showpageshadow="2"
     inkscape:pageopacity="0.0"
     inkscape:pagecheckerboard="0"
     inkscape:deskcolor="#d1d1d1"
     inkscape:zoom="0.52335389"
     inkscape:cx="1241.0341"
     inkscape:cy="463.3576"
     inkscape:window-width="1920"
     inkscape:window-height="1009"
     inkscape:window-x="3832"
     inkscape:window-y="423"
     inkscape:window-maximized="1"
     inkscape:current-layer="svg2" />
  <switch
     id="switch2"
     inkscape:export-filename="switch2.svg"
     inkscape:export-xdpi="96"
     inkscape:export-ydpi="96"
     transform="translate(-0.05857865,-3.5424554)">
    <g
       fill="#00acd7"
       id="g2">
      <path
         d="m 22.3,24.7 c -0.1,0 -0.2,-0.1 -0.1,-0.2 l 0.7,-1 c 0.1,-0.1 0.2,-0.2 0.4,-0.2 h 12.6 c 0.1,0 0.2,0.1 0.1,0.2 l -0.6,0.9 c -0.1,0.1 -0.2,0.2 -0.4,0.2 z M 17,27.9 c -0.1,0 -0.2,-0.1 -0.1,-0.2 l 0.7,-1 c 0.1,-0.1 0.2,-0.2 0.4,-0.2 h 16.1 c 0.1,0 0.2,0.1 0.2,0.2 l -0.3,1 c 0,0.1 -0.2,0.2 -0.3,0.2 z m 8.5,3.3 c -0.1,0 -0.2,-0.1 -0.1,-0.2 l 0.5,-0.9 C 26,30 26.1,29.9 26.3,29.9 h 7 c 0.1,0 0.2,0.1 0.2,0.2 l -0.1,0.8 c 0,0.1 -0.1,0.2 -0.2,0.2 z M 62.1,24 56.2,25.5 c -0.5,0.1 -0.6,0.2 -1,-0.4 -0.5,-0.6 -0.9,-1 -1.7,-1.3 -2.2,-1.1 -4.4,-0.8 -6.4,0.5 -2.4,1.5 -3.6,3.8 -3.6,6.7 0,2.8 2,5.1 4.8,5.5 2.4,0.3 4.4,-0.5 6,-2.3 0.3,-0.4 0.6,-0.8 1,-1.3 h -6.8 c -0.7,0 -0.9,-0.5 -0.7,-1.1 0.5,-1.1 1.3,-2.9 1.8,-3.8 0.1,-0.2 0.4,-0.6 0.9,-0.6 h 12.8 c -0.1,1 -0.1,1.9 -0.2,2.9 -0.4,2.5 -1.3,4.9 -2.9,6.9 -2.5,3.3 -5.8,5.4 -10,6 -3.5,0.5 -6.7,-0.2 -9.5,-2.3 -2.6,-2 -4.1,-4.6 -4.5,-7.8 -0.5,-3.8 0.7,-7.3 3,-10.3 2.5,-3.3 5.8,-5.4 9.9,-6.1 3.3,-0.6 6.5,-0.2 9.3,1.7 1.9,1.2 3.2,2.9 4.1,5 0.1,0.4 0,0.5 -0.4,0.6 z"
         id="path1" />
      <path
         d="m 73.7,43.5 c -3.2,-0.1 -6.1,-1 -8.6,-3.1 -2.1,-1.8 -3.4,-4.1 -3.8,-6.8 -0.6,-4 0.5,-7.5 2.9,-10.6 2.6,-3.4 5.7,-5.1 9.9,-5.9 3.6,-0.6 7,-0.3 10,1.8 2.8,1.9 4.5,4.5 5,7.9 0.6,4.8 -0.8,8.6 -4,11.9 -2.3,2.4 -5.2,3.8 -8.4,4.5 -1.1,0.2 -2.1,0.2 -3,0.3 z m 8.4,-14.2 c 0,-0.5 0,-0.8 -0.1,-1.2 -0.6,-3.5 -3.8,-5.5 -7.2,-4.7 -3.3,0.7 -5.4,2.8 -6.2,6.1 -0.6,2.7 0.7,5.5 3.2,6.7 1.9,0.8 3.9,0.7 5.7,-0.2 2.9,-1.4 4.4,-3.7 4.6,-6.7 z"
         id="path2" />
    </g>
  </switch>
</svg>
