<?xml version="1.0" encoding="UTF-8" standalone="no"?>
<!-- Uploaded to: SVG Repo, www.svgrepo.com, Generator: SVG Repo Mixer Tools -->

<svg
   width="666.66663"
   height="666.66663"
   viewBox="0 0 19.999999 19.999999"
   fill="none"
   version="1.1"
   id="svg1"
   xmlns="http://www.w3.org/2000/svg"
   xmlns:svg="http://www.w3.org/2000/svg">
  <defs
     id="defs1" />
  <path
     fill-rule="evenodd"
     clip-rule="evenodd"
     d="M 10,1.1920929e-7 C 4.4771501,1.1920929e-7 1.1920929e-7,4.4771501 1.1920929e-7,10 1.1920929e-7,15.5228 4.4771501,20 10,20 15.5228,20 20,15.5228 20,10 20,4.4771501 15.5228,1.1920929e-7 10,1.1920929e-7 Z M 7.9519701,4.2500001 c -0.42986,-7e-5 -0.83173,-1.4e-4 -1.16005,0.04891 -0.3709,0.05541 -0.75192,0.18639 -1.0565,0.5248 -0.29439,0.32711 -0.39832,0.7169 -0.44338,1.08923 -0.04211,0.34802 -0.04208,0.77944 -0.04204,1.2666 v 0.57046 c 0,0.4142 0.33579,0.75 0.75,0.75 0.41421,0 0.75,-0.3358 0.75,-0.75 v -0.52778 c 0,-0.54291 0.00129,-0.88211 0.03118,-1.12909 0.01402,-0.11588 0.03155,-0.18265 0.04572,-0.22092 0.01195,-0.03228 0.02049,-0.04175 0.02333,-0.0449 l 8.1e-4,-9.4e-4 c 0.00136,-0.00164 0.00236,-0.00284 0.01138,-0.00697 0.01662,-0.0076 0.05926,-0.02323 0.15112,-0.03695 0.20411,-0.03049 0.49157,-0.03245 0.98646,-0.03245 h 1.25 V 14.25 h -1.75 c -0.41421,0 -0.75,0.3358 -0.75,0.75 0,0.4142 0.33579,0.75 0.75,0.75 H 13 c 0.4142,0 0.75,-0.3358 0.75,-0.75 0,-0.4142 -0.3358,-0.75 -0.75,-0.75 H 10.75 V 5.7500001 H 12 c 0.4949,0 0.7824,0.00196 0.9865,0.03245 0.0918,0.01372 0.1345,0.02935 0.1511,0.03695 0.009,0.00413 0.01,0.00533 0.0114,0.00697 l 6e-4,7.9e-4 c 0.0029,0.00315 0.0115,0.01277 0.0235,0.04505 0.0142,0.03827 0.0317,0.10504 0.0457,0.22092 0.0299,0.24698 0.0312,0.58618 0.0312,1.12909 v 0.52778 c 0,0.4142 0.3358,0.75 0.75,0.75 0.4142,0 0.75,-0.3358 0.75,-0.75 v -0.57047 c 0,-0.48715 10e-5,-0.91857 -0.042,-1.26659 -0.0451,-0.37233 -0.149,-0.76212 -0.4434,-1.08923 -0.3046,-0.33841 -0.6856,-0.46939 -1.0565,-0.5248 -0.3283,-0.04905 -0.7302,-0.04898 -1.1601,-0.04891 z"
     fill="#1c274c"
     id="path1" />
</svg>
