<?xml version="1.0" encoding="UTF-8" standalone="no"?>
<svg
   height="324.5575"
   width="923.0769"
   viewBox="-59.385 -34.8 395.89999 84.709506"
   version="1.1"
   id="svg5"
   sodipodi:docname="g5.svg"
   inkscape:version="1.3 (0e150ed6c4, 2023-07-21)"
   xmlns:inkscape="http://www.inkscape.org/namespaces/inkscape"
   xmlns:sodipodi="http://sodipodi.sourceforge.net/DTD/sodipodi-0.dtd"
   xmlns="http://www.w3.org/2000/svg"
   xmlns:svg="http://www.w3.org/2000/svg">
  <defs
     id="defs5" />
  <sodipodi:namedview
     id="namedview5"
     pagecolor="#ffffff"
     bordercolor="#000000"
     borderopacity="0.25"
     inkscape:showpageshadow="2"
     inkscape:pageopacity="0.0"
     inkscape:pagecheckerboard="0"
     inkscape:deskcolor="#d1d1d1"
     inkscape:zoom="1.40725"
     inkscape:cx="461.53845"
     inkscape:cy="162.37342"
     inkscape:window-width="1920"
     inkscape:window-height="1009"
     inkscape:window-x="3832"
     inkscape:window-y="423"
     inkscape:window-maximized="1"
     inkscape:current-layer="svg5" />
  <g
     fill-rule="evenodd"
     fill="#cc0000"
     id="g5"
     transform="translate(-59.384998,-61.640865)">
    <path
       d="m 344.6,121.1 v 18.1 h 32.7 c 6.7,0 18.2,-4.9 18.6,-18.6 v -7 C 395.9,101.9 386.3,95 377.3,95 H 361 v -8.4 h 32.3 V 68.4 h -31 c -8,0 -18.7,6.6 -18.7,18.9 v 6.3 c 0,12.3 10.6,18.6 18.7,18.6 22.5,0.1 -5.4,0 15.4,0 v 8.8 m -208.3,-4.3 c 0,0 17.5,-1.5 17.5,-24.1 0,-22.6 -21.2,-24.7 -21.2,-24.7 h -38.2 v 71.3 h 19.2 V 122 l 16.6,17.2 h 28.4 z M 162,102.1 H 146.7 V 85.8 h 15.4 c 0,0 4.3,1.6 4.3,8.1 0,6.5 -4.4,8.2 -4.4,8.2 z M 234.3,68.4 H 214.8 C 200.9,68.4 196.2,81 196.2,87 v 52.2 h 19.5 V 126.7 H 234 v 12.5 h 18.9 V 87 c 0,-15.2 -13.8,-18.6 -18.6,-18.6 z M 234,106.5 H 215.6 V 89.2 c 0,0 0,-3.9 6.1,-3.9 h 6.7 c 5.4,0 5.5,3.9 5.5,3.9 v 17.3 z m 27.8,-38.1 h 20.3 v 70.8 h -20.3 z m 28.6,0 v 70.8 h 47.5 V 120.9 H 310.6 V 68.4 Z"
       id="path1" />
    <path
       d="m 7,139.2 h 79 c 0,0 -15.1,-68.9 34.9,-96.8 10.9,-5.3 45.6,-25.1 102.4,16.9 1.8,-1.5 3.5,-2.7 3.5,-2.7 0,0 -52,-51.9 -109.9,-46.1 C 87.8,13.1 52,39.6 31,74.6 10,109.6 7,139.2 7,139.2 Z"
       id="path2" />
    <path
       d="m 7,139.2 h 79 c 0,0 -15.1,-68.9 34.9,-96.8 10.9,-5.3 45.6,-25.1 102.4,16.9 1.8,-1.5 3.5,-2.7 3.5,-2.7 0,0 -52,-51.9 -109.9,-46.1 C 87.8,13.1 52,39.6 31,74.6 10,109.6 7,139.2 7,139.2 Z"
       id="path3" />
    <path
       d="m 7,139.2 h 79 c 0,0 -15.1,-68.9 34.9,-96.8 10.9,-5.3 45.6,-25.1 102.4,16.9 1.8,-1.5 3.5,-2.7 3.5,-2.7 0,0 -52,-51.9 -109.9,-46.1 -29.2,2.6 -65,29.1 -86,64.1 C 9.9,109.6 7,139.2 7,139.2 Z M 171.6,16.1 172,9.4 c -0.9,-0.5 -3.4,-1.7 -9.7,-3.5 l -0.4,6.6 c 3.3,1.1 6.5,2.3 9.7,3.6 z"
       id="path4" />
    <path
       d="m 162.1,37.3 -0.4,6.3 c 3.3,0.1 6.6,0.5 9.9,1.2 l 0.4,-6.2 c -3.4,-0.7 -6.7,-1.1 -9.9,-1.3 z m -37,-31.2 h 1 l -2,-6.1 c -3.1,0 -6.3,0.2 -9.6,0.6 l 1.9,5.9 c 2.9,-0.3 5.8,-0.4 8.7,-0.4 z m 4.8,36.8 2.3,6.9 c 2.9,-1.4 5.8,-2.6 8.7,-3.5 l -2.2,-6.6 c -3.4,1 -6.3,2.1 -8.8,3.2 z M 84.5,16.6 80,9.7 C 77.5,11 74.9,12.4 72.2,14 l 4.6,7 c 2.6,-1.6 5.1,-3.1 7.7,-4.4 z m 20.5,45 4.8,7.2 c 1.7,-2.5 3.7,-4.8 5.9,-7.1 l -4.5,-6.8 c -2.3,2.1 -4.4,4.4 -6.2,6.7 z m -14.5,32.2 8.1,6.4 c 0.4,-3.9 1.1,-7.8 2.1,-11.7 l -7.2,-5.7 c -1.3,3.7 -2.2,7.4 -3,11 z M 46.7,46.3 39.6,40.1 c -2.6,2.5 -5.1,5 -7.4,7.5 l 7.7,6.6 c 2.1,-2.7 4.4,-5.4 6.8,-7.9 z M 16.5,91 5,86.8 c -1.9,4.3 -4,9.3 -5,12 l 11.5,4.2 c 1.3,-3.4 3.4,-8.3 5,-12 z M 89,119.2 c 0.2,5.3 0.7,9.6 1.2,12.6 l 12,4.3 c -0.9,-3.9 -1.8,-8.3 -2.4,-13 z"
       id="path5" />
  </g>
</svg>
