<?xml version="1.0" encoding="UTF-8" standalone="no"?>
<!-- created by svgstack.com | Attribution is required. -->

<svg
   width="765.86511"
   height="766.07812"
   version="1.1"
   id="svg3"
   sodipodi:docname="rounded-question-free-icon_svgstack_com_23721747317904.svg"
   xmlns:inkscape="http://www.inkscape.org/namespaces/inkscape"
   xmlns:sodipodi="http://sodipodi.sourceforge.net/DTD/sodipodi-0.dtd"
   xmlns="http://www.w3.org/2000/svg"
   xmlns:svg="http://www.w3.org/2000/svg">
  <defs
     id="defs3" />
  <sodipodi:namedview
     id="namedview3"
     pagecolor="#ffffff"
     bordercolor="#000000"
     borderopacity="0.25"
     inkscape:showpageshadow="2"
     inkscape:pageopacity="0.0"
     inkscape:pagecheckerboard="0"
     inkscape:deskcolor="#d1d1d1" />
  <g
     id="g3"
     transform="translate(-128.77568,-128.70534)">
    <path
       fill="#8195f9"
       transform="scale(2)"
       d="m 252.809,64.4632 0.598,-0.0217 c 48.019,-1.5736 97.437,17.8556 132.399,50.5695 78.103,73.08 82.573,194.225 9.167,272.29 -35.555,37.811 -83.665,58.497 -135.532,60.076 C 134.014,448.907 39.1576,330.95 70.3834,207.715 91.1984,125.567 168.138,65.6088 252.809,64.4632 Z"
       id="path1" />
    <path
       fill="#fcd933"
       transform="scale(2)"
       d="m 255.199,335.603 c 8.732,0.17 16.187,5.286 17.401,14.366 1.858,13.89 2.247,31.538 -15.499,33.545 -16.07,0.088 -18.3,-11.48 -18.28,-24.741 0.018,-11.622 2.681,-22.33 16.378,-23.17 z"
       id="path2" />
    <path
       fill="#d4e9f7"
       transform="scale(2)"
       d="m 250.468,120.483 c 30.533,-1.653 57.782,12.586 74.592,38.361 23.037,35.319 12.018,85.568 -22.877,108.823 -11.805,7.868 -25.118,9.361 -27.84,27.614 -0.442,2.965 -0.364,6.016 -0.971,8.955 -3.813,18.465 -30.812,17.817 -34.825,-0.172 -5.215,-23.377 12.147,-48.711 31.466,-60.539 2.578,-1.448 5.365,-2.525 7.99,-3.892 43.162,-22.479 21.89,-89.387 -29.223,-82.033 -17.625,2.536 -33.129,17.552 -36.92,34.883 -1.657,7.577 0.254,17.081 -4.704,23.534 -6.333,8.243 -18.256,9.471 -26.313,3.065 -7.721,-6.138 -7.313,-15.442 -6.542,-24.293 3.577,-41.06 36.254,-70.059 76.167,-74.306 z"
       id="path3" />
  </g>
</svg>
