<?xml version="1.0" encoding="utf-8"?>
<!-- Generator: Adobe Illustrator 16.0.0, SVG Export Plug-In . SVG Version: 6.00 Build 0)  -->
<!DOCTYPE svg PUBLIC "-//W3C//DTD SVG 1.1//EN" "http://www.w3.org/Graphics/SVG/1.1/DTD/svg11.dtd">
<svg version="1.1" id="Layer_1" xmlns="http://www.w3.org/2000/svg" xmlns:xlink="http://www.w3.org/1999/xlink" x="0px" y="0px"
	 width="512px" height="512px" viewBox="0 0 512 512" enable-background="new 0 0 512 512" xml:space="preserve">
<g>
	<path fill="#751323" d="M126.75,181.5c25.428,0,46.58-18.257,51.096-42.375c9.427,5.323,20.306,8.375,31.904,8.375
		c19.501,0,36.983-8.6,48.897-22.2c9.403,13.418,24.974,22.2,42.603,22.2c28.719,0,52-23.281,52-52s-23.281-52-52-52
		c-12.348,0-23.683,4.312-32.602,11.501C258.289,32.851,235.818,17.5,209.75,17.5c-35.302,0-64.01,28.147-64.955,63.221
		c-5.622-2.081-11.7-3.221-18.045-3.221c-28.719,0-52,23.281-52,52S98.031,181.5,126.75,181.5z"/>
	<path fill="#751323" d="M387.25,210.5h-55.383l-4.097-50H187.267c-11.274,21.962-34.132,37-60.517,37
		c-8.785,0-17.171-1.684-24.878-4.717L78.25,471.466c0,0,60.623,23.034,138.818,23.034s136.182-23.034,136.182-23.034l-4.668-56.966
		h38.668c27.614,0,50-22.386,50-50v-104C437.25,232.885,414.865,210.5,387.25,210.5z M161.25,411.5c0,9.112-7.387,16.5-16.5,16.5
		s-16.5-7.388-16.5-16.5v-168c0-9.113,7.387-16.5,16.5-16.5s16.5,7.387,16.5,16.5V411.5z M232.25,411.5
		c0,9.112-7.387,16.5-16.5,16.5s-16.5-7.388-16.5-16.5v-168c0-9.113,7.387-16.5,16.5-16.5s16.5,7.387,16.5,16.5V411.5z
		 M296.25,411.5c0,9.112-7.387,16.5-16.5,16.5s-16.5-7.388-16.5-16.5v-168c0-9.113,7.387-16.5,16.5-16.5s16.5,7.387,16.5,16.5V411.5
		z M412.25,351.753c0,20.845-16.898,37.743-37.743,37.743h-27.974l-12.617-153.992h40.591c20.845,0,37.743,16.898,37.743,37.743
		V351.753z"/>
</g>
</svg>
